<?xml version="1.0" encoding="UTF-8" ?>
<!DOCTYPE svg PUBLIC "-//W3C//DTD SVG 1.1//EN" "http://www.w3.org/Graphics/SVG/1.1/DTD/svg11.dtd">
<svg width="374pt" height="405pt" viewBox="0 0 374 405" version="1.1" xmlns="http://www.w3.org/2000/svg">
<g id="#f2076fff">
<path fill="#f2076f" opacity="1.00" d=" M 140.10 23.70 C 144.52 17.22 148.68 10.56 153.00 4.01 C 158.30 9.59 163.50 15.26 168.87 20.77 C 165.92 20.66 162.96 20.81 160.05 21.33 C 160.96 27.28 161.70 33.29 163.35 39.09 C 164.45 42.48 165.84 45.77 167.29 49.03 C 169.80 54.55 172.92 59.80 176.51 64.69 C 173.02 65.59 169.58 66.91 165.93 66.86 C 162.31 61.18 158.83 55.37 156.17 49.16 C 154.79 45.88 153.56 42.53 152.55 39.11 C 150.99 33.86 150.08 28.41 149.91 22.93 C 146.62 22.91 143.35 23.20 140.10 23.70 Z" />
<path fill="#f2076f" opacity="1.00" d=" M 172.47 76.19 C 175.60 75.07 178.80 74.11 182.13 73.77 C 183.61 77.89 186.00 81.68 186.92 86.00 C 188.66 93.62 190.75 101.35 190.15 109.24 C 190.34 114.64 189.95 120.06 188.80 125.35 C 188.62 125.98 188.39 126.60 188.12 127.20 C 186.30 131.03 184.70 134.99 182.61 138.69 C 178.39 144.81 172.76 149.81 166.65 153.97 C 162.85 156.28 158.97 158.45 154.96 160.35 C 148.86 162.96 142.87 165.83 137.12 169.16 C 127.29 173.67 119.69 181.68 113.00 189.97 C 109.46 194.29 106.54 199.07 103.82 203.94 C 98.59 212.41 93.10 220.73 88.15 229.37 L 87.96 229.67 C 86.64 230.38 85.93 231.48 85.85 232.97 L 85.63 233.31 C 85.57 233.40 85.47 233.57 85.41 233.65 C 84.97 234.34 84.10 235.71 83.66 236.40 C 83.56 236.57 83.35 236.92 83.25 237.10 L 82.77 237.92 C 82.67 238.10 82.46 238.45 82.35 238.62 C 81.91 239.33 81.01 240.74 80.56 241.44 C 80.49 241.55 80.35 241.76 80.28 241.87 C 79.89 242.44 79.12 243.58 78.74 244.15 C 78.66 244.29 78.49 244.56 78.41 244.70 L 78.07 245.30 C 77.97 245.49 77.75 245.88 77.65 246.07 C 74.40 251.70 70.82 257.14 67.49 262.73 C 67.30 262.67 66.93 262.56 66.74 262.50 C 66.31 260.71 65.96 258.91 65.59 257.11 C 63.68 257.06 61.76 257.03 59.84 256.93 C 71.96 237.01 84.62 217.42 96.19 197.19 C 100.94 189.22 106.06 181.45 112.11 174.40 C 113.09 173.25 114.11 172.15 115.16 171.07 C 118.59 168.95 121.56 166.20 124.94 164.00 C 129.17 161.02 133.85 158.79 138.42 156.39 C 144.19 153.34 150.69 152.00 156.38 148.76 C 159.76 146.81 162.85 144.42 165.69 141.76 C 167.22 140.44 169.00 139.48 170.68 138.38 C 173.32 134.55 176.10 130.69 177.54 126.21 C 178.39 123.95 178.92 121.59 179.13 119.19 C 181.83 104.63 178.72 89.45 172.47 76.19 Z" />
</g>
<g id="#0f922cff">
<path fill="#0f922c" opacity="1.00" d=" M 185.82 23.69 C 192.90 27.22 199.78 31.15 206.74 34.92 C 202.29 40.96 198.52 47.62 193.52 53.19 C 192.85 50.53 192.17 47.87 191.56 45.19 C 183.63 47.25 175.52 49.04 167.29 49.03 C 165.84 45.77 164.45 42.48 163.35 39.09 C 171.87 38.74 180.37 36.99 188.38 34.07 C 187.63 30.58 186.43 27.21 185.82 23.69 Z" />
</g>
<g id="#f09924ff">
<path fill="#f09924" opacity="1.00" d=" M 79.86 48.68 C 84.54 43.55 89.06 38.22 93.98 33.32 C 97.63 38.80 101.92 43.83 105.78 49.16 C 103.45 49.16 101.11 49.10 98.78 49.07 C 98.88 53.36 99.62 57.59 100.25 61.82 C 97.79 66.60 95.97 71.68 94.65 76.88 C 90.25 68.22 88.30 58.60 87.77 48.96 C 85.13 48.93 82.49 48.88 79.86 48.68 Z" />
<path fill="#f09924" opacity="1.00" d=" M 103.13 82.93 C 104.03 80.12 104.91 77.29 106.05 74.56 C 111.24 81.62 117.71 87.88 125.66 91.71 C 126.34 92.11 127.68 92.89 128.35 93.28 C 128.47 93.34 128.69 93.47 128.80 93.53 C 129.97 94.14 131.14 94.75 132.32 95.37 C 132.43 95.43 132.66 95.55 132.77 95.61 L 133.25 95.86 C 145.04 101.88 153.65 112.46 159.40 124.18 C 161.59 128.04 163.05 132.24 164.33 136.47 C 164.89 138.20 165.32 139.97 165.69 141.76 C 162.85 144.42 159.76 146.81 156.38 148.76 C 156.69 145.03 155.27 141.51 154.29 137.99 C 154.05 137.22 153.80 136.45 153.54 135.69 C 152.08 131.43 150.05 127.38 147.75 123.52 C 142.37 114.67 133.89 107.95 124.43 103.90 L 123.83 103.57 C 123.68 103.48 123.39 103.32 123.24 103.24 C 121.73 102.40 120.23 101.55 118.76 100.66 C 118.65 100.60 118.43 100.46 118.32 100.40 L 117.86 100.12 C 112.34 96.90 106.75 93.51 102.68 88.47 C 102.84 86.62 102.95 84.78 103.13 82.93 Z" />
<path fill="#f09924" opacity="1.00" d=" M 154.96 160.35 C 158.97 158.45 162.85 156.28 166.65 153.97 C 166.58 156.03 166.49 158.09 166.25 160.14 C 165.06 164.96 163.65 169.83 160.80 174.00 C 156.23 181.62 148.70 186.67 141.46 191.48 C 133.57 197.60 124.99 202.85 117.62 209.66 C 102.97 223.78 92.82 241.61 81.19 258.12 C 78.03 262.46 75.24 267.06 72.26 271.53 C 72.00 271.59 71.46 271.72 71.19 271.78 L 71.18 271.33 C 73.06 269.46 72.03 266.30 72.41 263.88 C 70.77 263.51 69.12 263.14 67.49 262.73 C 70.82 257.14 74.40 251.70 77.65 246.07 C 77.75 245.88 77.97 245.49 78.07 245.30 L 78.41 244.70 C 78.49 244.56 78.66 244.29 78.74 244.15 C 79.12 243.58 79.89 242.44 80.28 241.87 C 80.35 241.76 80.49 241.55 80.56 241.44 C 81.01 240.74 81.91 239.33 82.35 238.62 C 82.46 238.45 82.67 238.10 82.77 237.92 L 83.25 237.10 C 83.35 236.92 83.56 236.57 83.66 236.40 C 84.10 235.71 84.97 234.34 85.41 233.65 C 85.47 233.57 85.57 233.40 85.63 233.31 L 85.85 232.97 C 87.24 232.32 87.95 231.22 87.96 229.67 L 88.15 229.37 C 93.99 221.46 98.51 212.35 106.19 205.98 C 115.00 198.51 123.80 190.93 133.75 184.99 C 138.00 181.38 143.15 178.89 146.85 174.66 C 149.03 172.17 152.07 170.28 153.15 167.00 C 154.12 164.90 154.60 162.62 154.96 160.35 Z" />
</g>
<g id="#19952dff">
<path fill="#19952d" opacity="1.00" d=" M 109.89 49.64 C 121.37 39.31 137.74 37.15 152.55 39.11 C 153.56 42.53 154.79 45.88 156.17 49.16 C 150.44 49.26 144.67 48.61 138.98 49.54 C 131.26 50.50 124.08 54.15 118.12 59.04 C 118.28 58.05 118.45 57.07 118.62 56.09 C 117.67 55.76 116.72 55.43 115.77 55.10 C 115.24 53.95 114.70 52.80 114.17 51.66 C 113.01 51.66 111.86 51.65 110.70 51.65 C 110.43 50.98 110.16 50.31 109.89 49.64 Z" />
</g>
<g id="#23992fff">
<path fill="#23992f" opacity="1.00" d=" M 100.25 61.82 C 102.83 57.31 106.04 53.15 109.89 49.64 C 110.16 50.31 110.43 50.98 110.70 51.65 C 111.86 51.65 113.01 51.66 114.17 51.66 C 114.70 52.80 115.24 53.95 115.77 55.10 C 116.72 55.43 117.67 55.76 118.62 56.09 C 118.45 57.07 118.28 58.05 118.12 59.04 C 113.09 63.30 108.83 68.56 106.05 74.56 C 104.91 77.29 104.03 80.12 103.13 82.93 C 102.30 84.14 101.43 85.31 100.56 86.49 C 99.04 84.11 97.33 80.17 93.80 81.83 C 94.06 80.18 94.26 78.51 94.65 76.88 C 95.97 71.68 97.79 66.60 100.25 61.82 Z" />
</g>
<g id="#0062b7ff">
<path fill="#0062b7" opacity="1.00" d=" M 183.39 55.19 C 184.96 55.33 186.63 55.21 188.07 55.95 C 193.15 58.25 198.35 60.27 203.39 62.63 C 203.78 62.99 204.55 63.70 204.94 64.06 C 200.43 69.22 196.05 74.51 191.53 79.65 C 191.09 79.69 190.23 79.78 189.79 79.82 C 189.39 77.62 188.94 75.43 188.52 73.23 C 186.39 73.40 184.25 73.54 182.13 73.77 C 178.80 74.11 175.60 75.07 172.47 76.19 C 167.50 77.94 162.46 79.49 157.56 81.41 C 149.29 85.03 141.88 90.35 135.23 96.42 L 133.25 95.86 L 132.77 95.61 C 132.66 95.55 132.43 95.43 132.32 95.37 C 131.14 94.75 129.97 94.14 128.80 93.53 C 128.69 93.47 128.47 93.34 128.35 93.28 C 127.68 92.89 126.34 92.11 125.66 91.71 L 125.32 90.65 C 136.63 79.51 150.80 71.55 165.93 66.86 C 169.58 66.91 173.02 65.59 176.51 64.69 C 179.09 63.34 181.79 62.21 184.76 62.13 C 184.48 59.77 183.48 57.57 183.39 55.19 Z" />
</g>
<g id="#2d9d30ff">
<path fill="#2d9d30" opacity="1.00" d=" M 93.80 81.83 C 97.33 80.17 99.04 84.11 100.56 86.49 C 101.43 85.31 102.30 84.14 103.13 82.93 C 102.95 84.78 102.84 86.62 102.68 88.47 C 101.27 98.09 104.17 107.59 107.51 116.50 C 105.39 121.01 103.84 125.76 102.44 130.53 C 102.38 130.74 102.26 131.16 102.21 131.37 C 98.56 125.86 96.91 119.41 95.15 113.14 C 93.12 102.87 92.09 92.22 93.80 81.83 Z" />
</g>
<g id="#009484ff">
<path fill="#009484" opacity="1.00" d=" M 197.10 88.48 C 204.62 85.98 212.13 83.46 219.66 80.98 C 218.98 89.80 218.33 98.62 217.65 107.43 C 216.02 105.92 214.40 104.39 212.81 102.83 C 205.59 111.12 197.59 118.72 188.80 125.35 C 189.95 120.06 190.34 114.64 190.15 109.24 C 194.83 105.03 198.85 100.19 202.89 95.39 C 201.10 93.03 197.78 91.39 197.10 88.48 Z" />
<path fill="#009484" opacity="1.00" d=" M 170.87 125.37 C 173.58 123.24 176.35 121.22 179.13 119.19 C 178.92 121.59 178.39 123.95 177.54 126.21 C 175.32 125.94 173.09 125.65 170.87 125.37 Z" />
<path fill="#009484" opacity="1.00" d=" M 115.16 171.07 C 126.19 157.85 140.98 148.67 154.29 137.99 C 155.27 141.51 156.69 145.03 156.38 148.76 C 150.69 152.00 144.19 153.34 138.42 156.39 C 133.85 158.79 129.17 161.02 124.94 164.00 C 121.56 166.20 118.59 168.95 115.16 171.07 Z" />
<path fill="#009484" opacity="1.00" d=" M 113.00 189.97 C 119.69 181.68 127.29 173.67 137.12 169.16 C 133.44 171.71 129.96 174.57 127.16 178.11 C 121.78 185.04 115.89 191.62 111.22 199.06 C 110.11 201.74 108.34 204.05 106.19 205.98 C 98.51 212.35 93.99 221.46 88.15 229.37 C 93.10 220.73 98.59 212.41 103.82 203.94 C 106.54 199.07 109.46 194.29 113.00 189.97 Z" />
</g>
<g id="#986f30c6">
<path fill="#986f30" opacity="0.78" d=" M 128.35 93.28 C 128.47 93.34 128.69 93.47 128.80 93.53 C 128.69 93.47 128.47 93.34 128.35 93.28 Z" />
</g>
<g id="#816b40c7">
<path fill="#816b40" opacity="0.78" d=" M 132.32 95.37 C 132.43 95.43 132.66 95.55 132.77 95.61 C 132.66 95.55 132.43 95.43 132.32 95.37 Z" />
</g>
<g id="#0071bfff">
<path fill="#0071bf" opacity="1.00" d=" M 117.86 100.12 L 118.32 100.40 C 118.43 100.46 118.65 100.60 118.76 100.66 C 120.23 101.55 121.73 102.40 123.24 103.24 C 123.39 103.32 123.68 103.48 123.83 103.57 L 124.43 103.90 C 125.04 104.32 126.25 105.17 126.85 105.59 C 122.11 111.91 118.86 119.19 115.27 126.19 C 114.54 127.83 113.88 129.51 113.26 131.21 C 109.66 130.91 106.06 130.53 102.44 130.53 C 103.84 125.76 105.39 121.01 107.51 116.50 C 110.44 110.79 112.97 104.42 117.86 100.12 Z" />
</g>
<g id="#79663cba">
<path fill="#79663c" opacity="0.73" d=" M 118.32 100.40 C 118.43 100.46 118.65 100.60 118.76 100.66 C 118.65 100.60 118.43 100.46 118.32 100.40 Z" />
</g>
<g id="#395760b3">
<path fill="#395760" opacity="0.70" d=" M 123.24 103.24 C 123.39 103.32 123.68 103.48 123.83 103.57 C 123.68 103.48 123.39 103.32 123.24 103.24 Z" />
</g>
<g id="#983a8bff">
<path fill="#983a8b" opacity="1.00" d=" M 198.77 119.07 C 204.56 123.76 209.52 129.37 215.05 134.36 C 209.24 139.44 203.39 144.51 197.30 149.26 C 197.31 146.25 197.29 143.23 197.16 140.22 C 192.31 139.70 187.46 139.22 182.61 138.69 C 184.70 134.99 186.30 131.03 188.12 127.20 C 191.45 127.39 194.76 127.75 198.08 128.04 C 198.27 125.05 198.45 122.06 198.77 119.07 Z" />
<path fill="#983a8b" opacity="1.00" d=" M 115.27 126.19 C 125.88 123.61 136.88 123.14 147.75 123.52 C 150.05 127.38 152.08 131.43 153.54 135.69 C 140.41 134.61 127.08 133.69 114.04 136.09 C 113.77 134.57 113.47 133.06 113.14 131.56 L 113.26 131.21 C 113.88 129.51 114.54 127.83 115.27 126.19 Z" />
<path fill="#983a8b" opacity="1.00" d=" M 159.40 124.18 C 163.20 124.74 167.04 125.05 170.87 125.37 C 173.09 125.65 175.32 125.94 177.54 126.21 C 176.10 130.69 173.32 134.55 170.68 138.38 C 168.72 137.27 166.40 137.29 164.33 136.47 C 163.05 132.24 161.59 128.04 159.40 124.18 Z" />
<path fill="#983a8b" opacity="1.00" d=" M 88.77 151.82 C 91.08 144.17 94.17 135.69 101.39 131.38 L 102.21 131.37 C 101.23 135.30 100.47 139.29 99.69 143.27 C 99.11 148.18 95.81 152.11 94.65 156.85 C 92.14 164.41 92.07 172.42 91.25 180.26 C 90.48 182.79 89.60 185.28 88.67 187.75 C 87.19 191.13 85.70 194.51 84.08 197.82 C 83.69 182.40 84.81 166.77 88.77 151.82 Z" />
</g>
<g id="#007ac5ff">
<path fill="#007ac5" opacity="1.00" d=" M 102.44 130.53 C 106.06 130.53 109.66 130.91 113.26 131.21 L 113.14 131.56 C 110.44 139.71 109.44 148.29 108.20 156.76 C 106.79 159.77 106.26 163.06 106.25 166.37 L 106.17 166.97 C 104.84 167.65 104.49 168.71 105.11 170.15 C 103.37 178.18 101.49 186.23 97.66 193.58 C 97.64 192.14 97.68 190.69 97.40 189.27 C 95.41 187.87 93.18 186.85 91.13 185.53 C 90.30 186.26 89.47 186.99 88.67 187.75 C 89.60 185.28 90.48 182.79 91.25 180.26 C 94.03 170.91 96.12 161.37 98.15 151.84 C 98.70 148.99 99.78 146.21 99.69 143.27 C 100.47 139.29 101.23 135.30 102.21 131.37 C 102.26 131.16 102.38 130.74 102.44 130.53 Z" />
</g>
<g id="#38a132ff">
<path fill="#38a132" opacity="1.00" d=" M 108.20 156.76 C 109.44 148.29 110.44 139.71 113.14 131.56 C 113.47 133.06 113.77 134.57 114.04 136.09 C 116.34 148.85 114.39 161.80 112.11 174.40 C 106.06 181.45 100.94 189.22 96.19 197.19 C 96.70 195.99 97.19 194.79 97.66 193.58 C 101.49 186.23 103.37 178.18 105.11 170.15 C 106.15 169.31 106.51 168.25 106.17 166.97 L 106.25 166.37 C 107.45 163.30 108.11 160.06 108.20 156.76 Z" />
</g>
<g id="#019484ff">
<path fill="#019484" opacity="1.00" d=" M 164.33 136.47 C 166.40 137.29 168.72 137.27 170.68 138.38 C 169.00 139.48 167.22 140.44 165.69 141.76 C 165.32 139.97 164.89 138.20 164.33 136.47 Z" />
</g>
<g id="#127c7ce6">
<path fill="#127c7c" opacity="0.90" d=" M 106.25 166.37 C 106.26 163.06 106.79 159.77 108.20 156.76 C 108.11 160.06 107.45 163.30 106.25 166.37 Z" />
</g>
<g id="#0c6e7bd1">
<path fill="#0c6e7b" opacity="0.82" d=" M 105.11 170.15 C 104.49 168.71 104.84 167.65 106.17 166.97 C 106.51 168.25 106.15 169.31 105.11 170.15 Z" />
</g>
<g id="#0088cdff">
<path fill="#0088cd" opacity="1.00" d=" M 91.13 185.53 C 93.18 186.85 95.41 187.87 97.40 189.27 C 97.68 190.69 97.64 192.14 97.66 193.58 C 97.19 194.79 96.70 195.99 96.19 197.19 C 84.62 217.42 71.96 237.01 59.84 256.93 L 59.28 256.73 C 58.51 255.73 57.79 254.70 56.96 253.76 C 54.50 253.32 51.98 253.66 49.50 253.75 L 49.22 253.78 C 59.99 238.46 70.24 222.73 79.53 206.46 C 81.23 203.68 82.81 200.82 84.08 197.82 C 85.70 194.51 87.19 191.13 88.67 187.75 C 89.47 186.99 90.30 186.26 91.13 185.53 Z" />
</g>
<g id="#040404ff">
<path fill="#040404" opacity="1.00" d=" M 158.03 223.39 C 158.89 223.40 160.59 223.42 161.45 223.43 C 161.43 225.34 161.46 227.26 161.59 229.18 C 163.56 229.14 165.54 229.11 167.51 229.08 C 167.53 229.87 167.58 231.46 167.60 232.25 C 165.55 232.26 163.50 232.27 161.45 232.29 C 161.62 236.68 161.15 241.11 161.71 245.48 C 162.40 248.21 165.67 247.46 167.72 247.16 C 167.85 247.87 168.10 249.28 168.22 249.98 C 164.67 250.99 159.33 251.23 157.88 246.96 C 156.80 242.18 157.70 237.18 157.38 232.32 C 156.22 232.27 155.06 232.22 153.91 232.17 C 153.97 231.47 154.10 230.08 154.16 229.38 C 154.90 229.34 156.38 229.26 157.12 229.21 C 158.22 227.60 157.61 225.26 158.03 223.39 Z" />
<path fill="#040404" opacity="1.00" d=" M 224.04 223.42 C 224.90 223.42 226.61 223.41 227.47 223.40 C 227.46 225.25 227.45 227.09 227.41 228.94 C 229.45 229.13 231.50 229.18 233.55 229.12 C 233.56 229.90 233.58 231.47 233.59 232.25 C 231.54 232.26 229.50 232.27 227.46 232.28 C 227.61 236.68 227.15 241.11 227.71 245.48 C 228.41 248.21 231.68 247.45 233.73 247.17 C 233.85 247.88 234.09 249.28 234.22 249.99 C 230.67 250.98 225.35 251.23 223.88 246.98 C 222.81 242.20 223.69 237.20 223.39 232.33 C 222.23 232.28 221.07 232.22 219.92 232.17 C 219.98 231.46 220.11 230.03 220.17 229.31 C 220.97 229.31 222.57 229.32 223.36 229.33 C 223.69 227.37 223.89 225.39 224.04 223.42 Z" />
<path fill="#040404" opacity="1.00" d=" M 133.42 231.09 C 137.58 229.29 142.73 227.30 146.99 229.88 C 149.79 231.53 150.38 235.05 150.28 238.03 C 150.27 242.07 150.27 246.11 150.25 250.15 C 148.35 250.24 146.16 250.52 146.51 247.86 C 143.47 249.77 139.78 251.48 136.16 250.17 C 132.35 249.02 130.95 243.59 133.82 240.79 C 137.12 237.63 142.02 237.44 146.28 236.74 C 146.02 234.99 145.72 232.92 143.86 232.16 C 141.00 231.15 138.12 232.44 135.53 233.57 C 134.03 234.37 133.89 231.95 133.42 231.09 M 137.66 241.69 C 135.82 242.97 135.75 246.36 138.07 247.19 C 140.98 248.37 143.96 246.67 146.27 244.99 C 146.26 243.13 146.26 241.27 146.27 239.41 C 143.32 239.73 140.20 240.02 137.66 241.69 Z" />
<path fill="#040404" opacity="1.00" d=" M 176.35 229.54 C 182.17 226.80 189.88 230.50 190.97 236.94 C 192.68 243.03 188.37 250.12 181.87 250.56 C 176.17 251.47 170.49 246.87 170.07 241.15 C 169.44 236.48 171.81 231.29 176.35 229.54 M 178.18 232.33 C 171.87 235.28 173.17 247.83 180.95 247.52 C 186.36 247.28 188.08 240.67 186.55 236.35 C 185.68 232.84 181.46 230.78 178.18 232.33 Z" />
<path fill="#040404" opacity="1.00" d=" M 196.38 229.17 C 197.72 229.14 199.07 229.12 200.42 229.10 C 200.54 233.43 200.41 237.77 200.47 242.10 C 200.48 243.76 200.72 245.72 202.12 246.82 C 205.20 248.32 209.05 246.55 210.55 243.65 C 210.72 238.81 210.51 233.96 210.63 229.12 C 211.96 229.13 213.29 229.14 214.62 229.16 C 214.60 236.10 214.56 243.03 214.65 249.97 C 213.51 250.02 212.37 250.05 211.24 250.09 C 211.16 249.31 211.01 247.75 210.93 246.97 C 207.65 251.09 199.69 252.55 197.17 246.97 C 195.54 241.21 196.81 235.08 196.38 229.17 Z" />
<path fill="#040404" opacity="1.00" d=" M 238.98 230.00 C 242.77 227.73 247.76 228.50 251.25 231.01 C 250.88 231.60 250.14 232.77 249.77 233.36 C 247.33 232.39 244.70 230.94 242.03 231.99 C 240.42 232.47 239.45 235.01 240.96 236.10 C 244.04 238.20 248.22 238.28 250.92 241.01 C 253.16 243.49 252.21 247.77 249.27 249.25 C 244.84 251.72 238.77 250.79 235.10 247.35 C 235.86 246.68 236.62 246.01 237.38 245.34 C 240.06 247.26 243.74 248.53 246.88 246.95 C 248.47 246.12 248.64 243.87 247.37 242.68 C 244.08 240.45 239.39 240.44 236.91 237.01 C 235.45 234.60 236.59 231.32 238.98 230.00 Z" />
<path fill="#040404" opacity="1.00" d=" M 266.77 229.14 C 267.56 229.14 269.14 229.13 269.94 229.13 C 270.11 229.70 270.45 230.83 270.62 231.40 C 274.45 228.19 280.92 227.40 284.38 231.55 C 288.56 237.02 287.40 246.66 280.81 249.76 C 277.51 251.48 273.71 250.36 270.72 248.55 C 270.74 251.99 270.72 255.42 270.76 258.86 C 269.43 258.86 268.11 258.87 266.79 258.88 C 266.68 248.96 266.73 239.05 266.77 229.14 M 270.67 234.75 C 270.76 238.25 270.78 241.75 270.65 245.26 C 273.35 247.54 277.92 248.51 280.54 245.59 C 283.26 242.18 283.31 236.73 280.73 233.22 C 277.66 230.58 273.24 232.21 270.67 234.75 Z" />
<path fill="#040404" opacity="1.00" d=" M 297.41 229.51 C 303.20 226.84 310.82 230.49 311.95 236.86 C 313.71 242.97 309.41 250.10 302.89 250.56 C 297.18 251.48 291.49 246.87 291.07 241.14 C 290.43 236.45 292.84 231.25 297.41 229.51 M 299.28 232.28 C 294.57 234.45 294.23 241.23 296.80 245.17 C 299.57 249.13 306.53 247.74 307.54 242.98 C 309.87 237.76 305.62 229.66 299.28 232.28 Z" />
<path fill="#040404" opacity="1.00" d=" M 317.36 229.19 C 318.71 229.15 320.07 229.12 321.42 229.09 C 321.53 233.42 321.41 237.75 321.47 242.09 C 321.49 243.75 321.70 245.73 323.13 246.82 C 326.20 248.33 330.13 246.53 331.55 243.60 C 331.73 238.78 331.48 233.94 331.65 229.11 C 332.97 229.12 334.29 229.14 335.62 229.16 C 335.62 236.08 335.51 243.00 335.68 249.92 C 334.53 250.01 333.38 250.07 332.24 250.12 C 332.17 249.33 332.01 247.76 331.94 246.98 C 329.77 249.01 327.07 250.97 323.91 250.63 C 320.56 250.73 317.69 247.94 317.54 244.61 C 317.18 239.48 317.53 234.33 317.36 229.19 Z" />
<path fill="#040404" opacity="1.00" d=" M 342.77 229.13 C 343.60 229.13 345.25 229.13 346.08 229.13 C 346.16 230.35 346.23 231.58 346.30 232.80 C 348.36 229.88 351.74 227.92 355.40 228.89 C 355.26 229.73 354.97 231.42 354.82 232.26 C 351.34 231.34 347.66 233.41 346.80 236.92 C 346.61 241.29 346.79 245.67 346.74 250.05 C 345.40 250.08 344.07 250.11 342.74 250.14 C 342.74 243.14 342.70 236.14 342.77 229.13 Z" />
<path fill="#040404" opacity="1.00" d=" M 137.32 258.20 C 142.27 258.16 147.23 258.19 152.18 258.19 C 152.20 263.08 152.18 267.97 152.19 272.86 C 157.01 272.96 161.85 272.69 166.67 273.04 C 166.59 277.27 166.64 281.50 166.63 285.74 C 161.81 285.78 157.00 285.70 152.18 285.80 C 152.22 293.22 152.14 300.65 152.21 308.08 C 152.21 310.80 152.97 313.94 155.50 315.40 C 158.67 317.26 162.43 316.21 165.80 315.59 C 166.61 319.54 167.62 323.45 168.53 327.38 C 159.76 329.71 149.37 331.01 141.45 325.62 C 135.02 320.98 133.93 312.35 134.24 304.99 C 134.25 298.58 134.25 292.17 134.24 285.76 C 131.50 285.74 128.77 285.75 126.03 285.77 C 126.00 281.65 125.92 277.53 126.10 273.41 C 129.15 273.26 132.19 273.06 135.24 272.84 C 135.95 267.96 136.63 263.08 137.32 258.20 Z" />
<path fill="#040404" opacity="1.00" d=" M 193.43 272.59 C 203.46 269.92 214.94 272.26 222.56 279.49 C 233.82 290.11 233.98 310.14 222.97 320.99 C 212.18 331.67 193.24 332.14 181.80 322.23 C 169.72 311.98 169.16 291.40 180.16 280.18 C 183.79 276.51 188.45 273.91 193.43 272.59 M 198.16 285.33 C 192.63 287.27 190.85 293.76 190.74 299.04 C 190.61 303.79 191.05 309.03 194.21 312.83 C 197.97 317.35 205.95 317.21 209.50 312.50 C 212.20 308.95 212.74 304.29 212.70 299.96 C 212.63 295.74 211.93 291.20 209.09 287.91 C 206.45 284.84 201.88 284.07 198.16 285.33 Z" />
<path fill="#040404" opacity="1.00" d=" M 318.38 275.27 C 329.75 268.85 344.59 271.00 354.93 278.52 C 352.25 281.79 349.59 285.09 346.90 288.36 C 342.01 285.21 335.97 282.34 330.09 284.31 C 327.14 285.07 326.25 289.46 329.12 290.96 C 336.10 294.93 344.88 295.41 350.95 301.08 C 356.44 305.89 356.79 314.84 352.62 320.60 C 349.28 325.30 343.65 327.77 338.11 328.72 C 327.49 330.76 316.34 327.82 307.50 321.77 C 310.06 318.21 312.83 314.82 315.60 311.43 C 321.46 315.49 329.09 318.92 336.21 316.28 C 339.23 315.19 339.51 310.65 336.58 309.25 C 328.97 304.84 318.95 304.12 313.24 296.72 C 307.90 289.93 311.05 279.26 318.38 275.27 Z" />
<path fill="#040404" opacity="1.00" d=" M 243.23 272.98 C 249.21 272.76 255.19 272.92 261.18 272.88 C 261.22 283.95 261.14 295.01 261.22 306.07 C 261.35 309.08 261.66 312.81 264.53 314.51 C 269.92 317.00 276.48 314.07 279.26 309.09 C 279.38 297.06 279.29 285.01 279.29 272.97 C 285.27 272.76 291.26 272.91 297.24 272.88 C 297.26 291.27 297.26 309.66 297.24 328.06 C 292.33 328.01 287.41 328.22 282.51 327.91 C 282.17 325.65 281.91 323.37 281.42 321.14 C 281.19 321.09 280.71 320.99 280.48 320.94 C 276.79 324.64 272.37 327.88 267.13 328.84 C 260.99 329.99 253.84 329.44 249.10 324.94 C 244.59 320.61 243.39 314.05 243.27 308.06 C 243.19 296.37 243.29 284.67 243.23 272.98 Z" />
<path fill="#040404" opacity="1.00" d=" M 133.00 354.00 C 206.67 354.00 280.33 354.00 354.00 354.00 C 354.00 367.67 354.00 381.33 354.00 395.00 C 280.33 395.00 206.67 395.00 133.00 395.00 C 133.00 381.33 133.00 367.67 133.00 354.00 M 258.24 363.13 C 258.25 366.14 258.24 369.15 258.42 372.15 C 256.24 370.87 253.59 369.88 251.17 371.16 C 245.59 374.02 244.98 382.64 249.14 386.96 C 251.84 389.52 256.12 388.69 258.61 386.25 C 258.53 388.00 259.46 388.62 261.40 388.13 C 261.39 379.80 261.42 371.47 261.38 363.14 C 260.60 363.13 259.03 363.13 258.24 363.13 M 180.86 368.87 C 177.68 373.77 177.78 380.89 181.61 385.42 C 185.26 389.49 192.01 389.45 196.03 385.93 C 195.98 382.66 196.01 379.39 195.99 376.13 C 193.45 376.13 190.91 376.13 188.37 376.15 C 188.37 376.80 188.39 378.10 188.40 378.74 C 189.97 378.73 191.55 378.73 193.13 378.74 C 193.14 380.77 193.13 382.81 193.08 384.86 C 190.03 386.19 185.92 386.16 183.76 383.28 C 181.23 379.56 181.20 374.27 183.45 370.40 C 185.78 366.78 191.24 366.55 194.18 369.58 C 194.55 369.06 195.30 368.03 195.67 367.51 C 191.78 363.12 184.00 364.04 180.86 368.87 M 278.01 365.13 C 277.99 372.80 278.00 380.46 278.00 388.13 C 282.49 388.14 286.98 388.13 291.47 388.13 C 291.46 387.45 291.46 386.09 291.46 385.41 C 288.03 385.39 284.60 385.39 281.18 385.41 C 281.12 382.73 281.12 380.06 281.14 377.38 C 283.95 377.40 286.75 377.40 289.57 377.39 C 289.56 376.69 289.56 375.30 289.56 374.61 C 286.75 374.59 283.94 374.59 281.14 374.61 C 281.13 372.33 281.13 370.04 281.14 367.76 C 284.53 367.72 287.92 367.75 291.31 367.71 C 291.27 366.85 291.24 365.99 291.21 365.14 C 286.81 365.13 282.41 365.14 278.01 365.13 M 310.65 366.27 C 310.56 367.81 310.47 369.35 310.39 370.90 C 309.73 370.98 308.41 371.15 307.75 371.23 C 307.75 371.81 307.75 372.98 307.75 373.56 C 308.35 373.58 309.55 373.62 310.14 373.64 C 310.34 377.77 309.58 382.08 310.76 386.09 C 311.95 389.16 315.76 388.56 318.32 388.04 C 318.18 387.46 317.92 386.30 317.78 385.72 C 316.31 385.78 314.10 386.52 313.48 384.62 C 312.97 380.99 313.39 377.27 313.29 373.61 C 314.77 373.60 316.26 373.60 317.75 373.60 C 317.75 372.95 317.73 371.65 317.72 371.00 C 316.23 370.99 314.74 370.99 313.25 370.98 C 313.26 369.41 313.27 367.84 313.28 366.28 C 312.62 366.28 311.31 366.27 310.65 366.27 M 200.74 370.94 C 200.73 376.66 200.73 382.39 200.74 388.12 C 201.49 388.12 202.98 388.11 203.73 388.10 C 203.80 384.58 203.62 381.05 203.77 377.53 C 204.12 374.76 206.88 372.82 209.62 373.51 C 209.76 372.82 210.04 371.45 210.18 370.77 C 207.39 369.93 204.89 371.58 203.41 373.85 C 203.63 371.79 203.14 370.31 200.74 370.94 M 211.36 372.76 C 211.61 373.27 212.12 374.31 212.37 374.83 C 214.51 374.07 216.61 372.69 218.98 373.35 C 220.50 374.00 220.66 375.71 221.10 377.10 C 217.79 377.72 213.96 377.99 211.58 380.68 C 209.34 383.52 211.28 388.48 215.06 388.49 C 217.40 388.84 219.37 387.41 221.21 386.19 C 221.26 386.67 221.36 387.63 221.41 388.11 C 222.05 388.12 223.35 388.13 224.00 388.14 C 223.96 384.39 224.09 380.65 223.95 376.90 C 223.88 374.68 223.07 372.09 220.84 371.16 C 217.66 369.70 214.20 371.20 211.36 372.76 M 229.74 370.93 C 229.73 376.66 229.73 382.39 229.74 388.12 C 230.49 388.12 231.98 388.11 232.73 388.10 C 232.82 384.03 232.58 379.96 232.81 375.89 C 234.12 373.56 238.58 371.88 239.92 375.04 C 240.74 379.33 239.92 383.74 240.38 388.08 C 241.34 388.12 242.30 388.15 243.26 388.15 C 242.95 383.24 243.98 378.12 242.61 373.36 C 240.74 369.09 235.20 370.43 232.55 373.17 C 232.61 371.27 231.67 370.53 229.74 370.93 M 294.92 376.92 C 296.44 380.50 301.50 379.94 303.44 383.04 C 303.60 387.59 297.48 386.19 295.27 384.09 C 294.91 384.60 294.20 385.63 293.84 386.14 C 297.40 389.46 305.41 389.80 306.40 383.91 C 307.02 378.52 300.09 378.99 297.69 375.94 C 297.14 371.97 302.50 372.83 304.50 374.49 C 304.82 373.90 305.47 372.72 305.79 372.13 C 303.65 371.30 301.42 370.15 299.06 370.72 C 296.23 370.99 293.67 374.12 294.92 376.92 M 265.16 378.17 C 265.21 378.75 265.30 379.90 265.34 380.48 C 268.02 380.46 270.71 380.46 273.40 380.47 C 273.40 379.90 273.42 378.76 273.43 378.19 C 270.67 378.11 267.92 378.11 265.16 378.17 Z" />
<path fill="#040404" opacity="1.00" d=" M 252.44 373.74 C 254.37 372.52 256.63 373.67 258.31 374.77 C 258.18 377.83 258.45 380.91 258.11 383.97 C 256.30 386.08 252.50 386.84 250.81 384.21 C 248.97 381.02 249.05 375.87 252.44 373.74 Z" />
<path fill="#040404" opacity="1.00" d=" M 214.57 381.36 C 216.31 379.89 218.70 379.75 220.83 379.26 C 220.85 380.81 220.87 382.37 220.89 383.94 C 219.24 385.13 217.22 386.70 215.08 385.74 C 213.31 385.18 213.12 382.40 214.57 381.36 Z" />
</g>
<g id="#c35732d2">
<path fill="#c35732" opacity="0.82" d=" M 85.85 232.97 C 85.93 231.48 86.64 230.38 87.96 229.67 C 87.95 231.22 87.24 232.32 85.85 232.97 Z" />
</g>
<g id="#b54135c1">
<path fill="#b54135" opacity="0.76" d=" M 85.41 233.65 C 85.47 233.57 85.57 233.40 85.63 233.31 C 85.57 233.40 85.47 233.57 85.41 233.65 Z" />
</g>
<g id="#b52c40c0">
<path fill="#b52c40" opacity="0.75" d=" M 83.25 237.10 C 83.35 236.92 83.56 236.57 83.66 236.40 C 83.56 236.57 83.35 236.92 83.25 237.10 Z" />
</g>
<g id="#bf532fcb">
<path fill="#bf532f" opacity="0.80" d=" M 82.35 238.62 C 82.46 238.45 82.67 238.10 82.77 237.92 C 82.67 238.10 82.46 238.45 82.35 238.62 Z" />
</g>
<g id="#c13d3ccd">
<path fill="#c13d3c" opacity="0.80" d=" M 80.28 241.87 C 80.35 241.76 80.49 241.55 80.56 241.44 C 80.49 241.55 80.35 241.76 80.28 241.87 Z" />
</g>
<g id="#c42848d0">
<path fill="#c42848" opacity="0.82" d=" M 78.41 244.70 C 78.49 244.56 78.66 244.29 78.74 244.15 C 78.66 244.29 78.49 244.56 78.41 244.70 Z" />
</g>
<g id="#c24836ce">
<path fill="#c24836" opacity="0.81" d=" M 77.65 246.07 C 77.75 245.88 77.97 245.49 78.07 245.30 C 77.97 245.49 77.75 245.88 77.65 246.07 Z" />
</g>
<g id="#f6d8b7ff">
<path fill="#f6d8b7" opacity="1.00" d=" M 49.22 253.78 L 49.50 253.75 C 49.81 257.13 52.95 256.33 55.35 256.28 C 56.35 258.39 57.48 260.67 60.08 261.00 C 62.95 261.47 63.22 265.03 65.60 266.25 C 67.84 267.50 69.53 269.41 71.18 271.33 L 71.19 271.78 C 70.81 272.22 70.05 273.09 69.66 273.52 C 68.51 270.79 66.81 268.06 63.46 268.25 C 61.29 271.75 57.99 274.39 56.14 278.11 C 54.02 281.05 51.22 284.86 47.24 284.78 C 45.33 283.73 46.68 281.69 47.32 280.30 C 50.13 274.92 52.53 269.33 55.74 264.17 C 54.00 260.94 51.23 258.50 48.28 256.41 C 48.56 255.52 48.87 254.64 49.22 253.78 Z" />
</g>
<g id="#fbeddbff">
<path fill="#fbeddb" opacity="1.00" d=" M 49.50 253.75 C 51.98 253.66 54.50 253.32 56.96 253.76 C 57.79 254.70 58.51 255.73 59.28 256.73 L 59.84 256.93 C 61.76 257.03 63.68 257.06 65.59 257.11 C 65.96 258.91 66.31 260.71 66.74 262.50 C 66.93 262.56 67.30 262.67 67.49 262.73 C 69.12 263.14 70.77 263.51 72.41 263.88 C 72.03 266.30 73.06 269.46 71.18 271.33 C 69.53 269.41 67.84 267.50 65.60 266.25 C 63.22 265.03 62.95 261.47 60.08 261.00 C 57.48 260.67 56.35 258.39 55.35 256.28 C 52.95 256.33 49.81 257.13 49.50 253.75 Z" />
</g>
<g id="#f5d1a6ff">
<path fill="#f5d1a6" opacity="1.00" d=" M 48.28 256.41 C 51.23 258.50 54.00 260.94 55.74 264.17 C 52.53 269.33 50.13 274.92 47.32 280.30 C 46.68 281.69 45.33 283.73 47.24 284.78 C 51.22 284.86 54.02 281.05 56.14 278.11 C 57.99 274.39 61.29 271.75 63.46 268.25 C 66.81 268.06 68.51 270.79 69.66 273.52 L 69.74 273.67 C 63.57 280.00 57.30 286.24 51.25 292.70 C 50.18 290.71 49.25 288.64 47.96 286.79 C 45.99 284.92 43.08 284.99 40.57 284.71 C 43.25 275.31 45.71 265.85 48.28 256.41 Z" />
</g>
<g id="#e6197bff">
<path fill="#e6197b" opacity="1.00" d=" M 40.57 284.71 C 43.08 284.99 45.99 284.92 47.96 286.79 C 49.25 288.64 50.18 290.71 51.25 292.70 C 46.08 297.83 40.58 302.62 35.48 307.82 C 35.21 307.76 34.69 307.62 34.42 307.56 C 36.31 299.92 38.53 292.33 40.57 284.71 Z" />
</g>
<g id="#e5187afe">
<path fill="#e5187a" opacity="1.00" d=" M 27.11 320.08 C 27.42 318.95 28.35 318.30 29.47 318.14 C 28.07 324.85 25.00 331.19 24.81 338.13 C 24.86 339.49 24.27 340.73 23.58 341.86 C 21.15 339.14 19.00 336.18 16.53 333.49 C 13.36 329.73 9.39 326.59 7.23 322.07 C 13.65 323.69 17.58 329.46 21.72 334.13 C 23.81 329.56 24.95 324.62 27.11 320.08 Z" />
</g>
<g id="#f8f9fbff">
<path fill="#f8f9fb" opacity="1.00" d=" M 258.24 363.13 C 259.03 363.13 260.60 363.13 261.38 363.14 C 261.42 371.47 261.39 379.80 261.40 388.13 C 259.46 388.62 258.53 388.00 258.61 386.25 C 256.12 388.69 251.84 389.52 249.14 386.96 C 244.98 382.64 245.59 374.02 251.17 371.16 C 253.59 369.88 256.24 370.87 258.42 372.15 C 258.24 369.15 258.25 366.14 258.24 363.13 M 252.44 373.74 C 249.05 375.87 248.97 381.02 250.81 384.21 C 252.50 386.84 256.30 386.08 258.11 383.97 C 258.45 380.91 258.18 377.83 258.31 374.77 C 256.63 373.67 254.37 372.52 252.44 373.74 Z" />
<path fill="#f8f9fb" opacity="1.00" d=" M 180.86 368.87 C 184.00 364.04 191.78 363.12 195.67 367.51 C 195.30 368.03 194.55 369.06 194.18 369.58 C 191.24 366.55 185.78 366.78 183.45 370.40 C 181.20 374.27 181.23 379.56 183.76 383.28 C 185.92 386.16 190.03 386.19 193.08 384.86 C 193.13 382.81 193.14 380.77 193.13 378.74 C 191.55 378.73 189.97 378.73 188.40 378.74 C 188.39 378.10 188.37 376.80 188.37 376.15 C 190.91 376.13 193.45 376.13 195.99 376.13 C 196.01 379.39 195.98 382.66 196.03 385.93 C 192.01 389.45 185.26 389.49 181.61 385.42 C 177.78 380.89 177.68 373.77 180.86 368.87 Z" />
<path fill="#f8f9fb" opacity="1.00" d=" M 278.01 365.13 C 282.41 365.14 286.81 365.13 291.21 365.14 C 291.24 365.99 291.27 366.85 291.31 367.71 C 287.92 367.75 284.53 367.72 281.14 367.76 C 281.13 370.04 281.13 372.33 281.14 374.61 C 283.94 374.59 286.75 374.59 289.56 374.61 C 289.56 375.30 289.56 376.69 289.57 377.39 C 286.75 377.40 283.95 377.40 281.14 377.38 C 281.12 380.06 281.12 382.73 281.18 385.41 C 284.60 385.39 288.03 385.39 291.46 385.41 C 291.46 386.09 291.46 387.45 291.47 388.13 C 286.98 388.13 282.49 388.14 278.00 388.13 C 278.00 380.46 277.99 372.80 278.01 365.13 Z" />
<path fill="#f8f9fb" opacity="1.00" d=" M 310.65 366.27 C 311.31 366.27 312.62 366.28 313.28 366.28 C 313.27 367.84 313.26 369.41 313.25 370.98 C 314.74 370.99 316.23 370.99 317.72 371.00 C 317.73 371.65 317.75 372.95 317.75 373.60 C 316.26 373.60 314.77 373.60 313.29 373.61 C 313.39 377.27 312.97 380.99 313.48 384.62 C 314.10 386.52 316.31 385.78 317.78 385.72 C 317.92 386.30 318.18 387.46 318.32 388.04 C 315.76 388.56 311.95 389.16 310.76 386.09 C 309.58 382.08 310.34 377.77 310.14 373.64 C 309.55 373.62 308.35 373.58 307.75 373.56 C 307.75 372.98 307.75 371.81 307.75 371.23 C 308.41 371.15 309.73 370.98 310.39 370.90 C 310.47 369.35 310.56 367.81 310.65 366.27 Z" />
<path fill="#f8f9fb" opacity="1.00" d=" M 200.74 370.94 C 203.14 370.31 203.63 371.79 203.41 373.85 C 204.89 371.58 207.39 369.93 210.18 370.77 C 210.04 371.45 209.76 372.82 209.62 373.51 C 206.88 372.82 204.12 374.76 203.77 377.53 C 203.62 381.05 203.80 384.58 203.73 388.10 C 202.98 388.11 201.49 388.12 200.74 388.12 C 200.73 382.39 200.73 376.66 200.74 370.94 Z" />
<path fill="#f8f9fb" opacity="1.00" d=" M 211.36 372.76 C 214.20 371.20 217.66 369.70 220.84 371.16 C 223.07 372.09 223.88 374.68 223.95 376.90 C 224.09 380.65 223.96 384.39 224.00 388.14 C 223.35 388.13 222.05 388.12 221.41 388.11 C 221.36 387.63 221.26 386.67 221.21 386.19 C 219.37 387.41 217.40 388.84 215.06 388.49 C 211.28 388.48 209.34 383.52 211.58 380.68 C 213.96 377.99 217.79 377.72 221.10 377.10 C 220.66 375.71 220.50 374.00 218.98 373.35 C 216.61 372.69 214.51 374.07 212.37 374.83 C 212.12 374.31 211.61 373.27 211.36 372.76 M 214.57 381.36 C 213.12 382.40 213.31 385.18 215.08 385.74 C 217.22 386.70 219.24 385.13 220.89 383.94 C 220.87 382.37 220.85 380.81 220.83 379.26 C 218.70 379.75 216.31 379.89 214.57 381.36 Z" />
<path fill="#f8f9fb" opacity="1.00" d=" M 229.74 370.93 C 231.67 370.53 232.61 371.27 232.55 373.17 C 235.20 370.43 240.74 369.09 242.61 373.36 C 243.98 378.12 242.95 383.24 243.26 388.15 C 242.30 388.15 241.34 388.12 240.38 388.08 C 239.92 383.74 240.74 379.33 239.92 375.04 C 238.58 371.88 234.12 373.56 232.81 375.89 C 232.58 379.96 232.82 384.03 232.73 388.10 C 231.98 388.11 230.49 388.12 229.74 388.12 C 229.73 382.39 229.73 376.66 229.74 370.93 Z" />
<path fill="#f8f9fb" opacity="1.00" d=" M 294.92 376.92 C 293.67 374.12 296.23 370.99 299.06 370.72 C 301.42 370.15 303.65 371.30 305.79 372.13 C 305.47 372.72 304.82 373.90 304.50 374.49 C 302.50 372.83 297.14 371.97 297.69 375.94 C 300.09 378.99 307.02 378.52 306.40 383.91 C 305.41 389.80 297.40 389.46 293.84 386.14 C 294.20 385.63 294.91 384.60 295.27 384.09 C 297.48 386.19 303.60 387.59 303.44 383.04 C 301.50 379.94 296.44 380.50 294.92 376.92 Z" />
<path fill="#f8f9fb" opacity="1.00" d=" M 265.16 378.17 C 267.92 378.11 270.67 378.11 273.43 378.19 C 273.42 378.76 273.40 379.90 273.40 380.47 C 270.71 380.46 268.02 380.46 265.34 380.48 C 265.30 379.90 265.21 378.75 265.16 378.17 Z" />
</g>
</svg>
